<svg xmlns="http://www.w3.org/2000/svg" width="1346" height="448" viewBox="0 0 1346 448" font-family="DejaVu Sans, Helvetica, Arial, sans-serif">
<rect width="1346" height="448" fill="#ffffff"/>
<text x="46" y="66" font-size="20" font-weight="bold" fill="#0f2233">Uskunalar va qadoqlash — Оборудование, консервные линии, упаковка</text>
<text x="46" y="87" font-size="13" fill="#5b6b7a">1 stend = 3×3 m = 9 m² · 1 blok = 8 stend = 72 m² · layout v1.2.0 · 14.09.2026</text>
<rect x="123.00" y="190.00" width="528.00" height="66.00" fill="none" stroke="#90a4b5" stroke-width="1.4" stroke-dasharray="7 5" rx="4"/>
<rect x="123.00" y="158.00" width="118.72" height="25" rx="5" fill="#ffffff" stroke="#2E8B8B" stroke-width="1.4"/>
<text x="182.36" y="175.05" font-size="13" font-weight="bold" fill="#2E8B8B" text-anchor="middle">EQ-1 · 72 m²</text>
<rect x="123.00" y="190.00" width="66.00" height="66.00" rx="3" fill="#eaf6ec" stroke="#2E8B8B" stroke-width="1.1"/>
<rect x="123.00" y="190.00" width="66.00" height="66.00" rx="2" fill="#ffffff" stroke="#2E8B8B" stroke-width="1.05"/>
<text x="156.00" y="222.00" font-size="15.00" font-weight="bold" fill="#2E8B8B" text-anchor="middle">EQ1</text>
<text x="156.00" y="237.25" font-size="9.00" fill="#8a9aa8" text-anchor="middle">9 m²</text>
<rect x="189.00" y="190.00" width="66.00" height="66.00" rx="3" fill="#eaf6ec" stroke="#2E8B8B" stroke-width="1.1"/>
<rect x="189.00" y="190.00" width="66.00" height="66.00" rx="2" fill="#ffffff" stroke="#2E8B8B" stroke-width="1.05"/>
<text x="222.00" y="222.00" font-size="15.00" font-weight="bold" fill="#2E8B8B" text-anchor="middle">EQ2</text>
<text x="222.00" y="237.25" font-size="9.00" fill="#8a9aa8" text-anchor="middle">9 m²</text>
<rect x="255.00" y="190.00" width="66.00" height="66.00" rx="3" fill="#eaf6ec" stroke="#2E8B8B" stroke-width="1.1"/>
<rect x="255.00" y="190.00" width="66.00" height="66.00" rx="2" fill="#ffffff" stroke="#2E8B8B" stroke-width="1.05"/>
<text x="288.00" y="222.00" font-size="15.00" font-weight="bold" fill="#2E8B8B" text-anchor="middle">EQ3</text>
<text x="288.00" y="237.25" font-size="9.00" fill="#8a9aa8" text-anchor="middle">9 m²</text>
<rect x="321.00" y="190.00" width="66.00" height="66.00" rx="3" fill="#eaf6ec" stroke="#2E8B8B" stroke-width="1.1"/>
<rect x="321.00" y="190.00" width="66.00" height="66.00" rx="2" fill="#ffffff" stroke="#2E8B8B" stroke-width="1.05"/>
<text x="354.00" y="222.00" font-size="15.00" font-weight="bold" fill="#2E8B8B" text-anchor="middle">EQ4</text>
<text x="354.00" y="237.25" font-size="9.00" fill="#8a9aa8" text-anchor="middle">9 m²</text>
<rect x="387.00" y="190.00" width="66.00" height="66.00" rx="3" fill="#eaf6ec" stroke="#2E8B8B" stroke-width="1.1"/>
<rect x="387.00" y="190.00" width="66.00" height="66.00" rx="2" fill="#ffffff" stroke="#2E8B8B" stroke-width="1.05"/>
<text x="420.00" y="222.00" font-size="15.00" font-weight="bold" fill="#2E8B8B" text-anchor="middle">EQ5</text>
<text x="420.00" y="237.25" font-size="9.00" fill="#8a9aa8" text-anchor="middle">9 m²</text>
<rect x="453.00" y="190.00" width="66.00" height="66.00" rx="3" fill="#eaf6ec" stroke="#2E8B8B" stroke-width="1.1"/>
<rect x="453.00" y="190.00" width="66.00" height="66.00" rx="2" fill="#ffffff" stroke="#2E8B8B" stroke-width="1.05"/>
<text x="486.00" y="222.00" font-size="15.00" font-weight="bold" fill="#2E8B8B" text-anchor="middle">EQ6</text>
<text x="486.00" y="237.25" font-size="9.00" fill="#8a9aa8" text-anchor="middle">9 m²</text>
<rect x="519.00" y="190.00" width="66.00" height="66.00" rx="3" fill="#eaf6ec" stroke="#2E8B8B" stroke-width="1.1"/>
<rect x="519.00" y="190.00" width="66.00" height="66.00" rx="2" fill="#ffffff" stroke="#2E8B8B" stroke-width="1.05"/>
<text x="552.00" y="222.00" font-size="15.00" font-weight="bold" fill="#2E8B8B" text-anchor="middle">EQ7</text>
<text x="552.00" y="237.25" font-size="9.00" fill="#8a9aa8" text-anchor="middle">9 m²</text>
<rect x="585.00" y="190.00" width="66.00" height="66.00" rx="3" fill="#eaf6ec" stroke="#2E8B8B" stroke-width="1.1"/>
<rect x="585.00" y="190.00" width="66.00" height="66.00" rx="2" fill="#ffffff" stroke="#2E8B8B" stroke-width="1.05"/>
<text x="618.00" y="222.00" font-size="15.00" font-weight="bold" fill="#2E8B8B" text-anchor="middle">EQ8</text>
<text x="618.00" y="237.25" font-size="9.00" fill="#8a9aa8" text-anchor="middle">9 m²</text>
<rect x="353.00" y="266.00" width="68" height="7" rx="3.5" fill="#2E8B8B"/>
<rect x="695.00" y="190.00" width="528.00" height="66.00" fill="none" stroke="#90a4b5" stroke-width="1.4" stroke-dasharray="7 5" rx="4"/>
<rect x="695.00" y="158.00" width="118.72" height="25" rx="5" fill="#ffffff" stroke="#2E8B8B" stroke-width="1.4"/>
<text x="754.36" y="175.05" font-size="13" font-weight="bold" fill="#2E8B8B" text-anchor="middle">EQ-2 · 72 m²</text>
<rect x="695.00" y="190.00" width="66.00" height="66.00" rx="3" fill="#eaf6ec" stroke="#2E8B8B" stroke-width="1.1"/>
<rect x="695.00" y="190.00" width="66.00" height="66.00" rx="2" fill="#ffffff" stroke="#2E8B8B" stroke-width="1.05"/>
<text x="728.00" y="222.00" font-size="15.00" font-weight="bold" fill="#2E8B8B" text-anchor="middle">EQ1</text>
<text x="728.00" y="237.25" font-size="9.00" fill="#8a9aa8" text-anchor="middle">9 m²</text>
<rect x="761.00" y="190.00" width="66.00" height="66.00" rx="3" fill="#eaf6ec" stroke="#2E8B8B" stroke-width="1.1"/>
<rect x="761.00" y="190.00" width="66.00" height="66.00" rx="2" fill="#ffffff" stroke="#2E8B8B" stroke-width="1.05"/>
<text x="794.00" y="222.00" font-size="15.00" font-weight="bold" fill="#2E8B8B" text-anchor="middle">EQ2</text>
<text x="794.00" y="237.25" font-size="9.00" fill="#8a9aa8" text-anchor="middle">9 m²</text>
<rect x="827.00" y="190.00" width="66.00" height="66.00" rx="3" fill="#eaf6ec" stroke="#2E8B8B" stroke-width="1.1"/>
<rect x="827.00" y="190.00" width="66.00" height="66.00" rx="2" fill="#ffffff" stroke="#2E8B8B" stroke-width="1.05"/>
<text x="860.00" y="222.00" font-size="15.00" font-weight="bold" fill="#2E8B8B" text-anchor="middle">EQ3</text>
<text x="860.00" y="237.25" font-size="9.00" fill="#8a9aa8" text-anchor="middle">9 m²</text>
<rect x="893.00" y="190.00" width="66.00" height="66.00" rx="3" fill="#eaf6ec" stroke="#2E8B8B" stroke-width="1.1"/>
<rect x="893.00" y="190.00" width="66.00" height="66.00" rx="2" fill="#ffffff" stroke="#2E8B8B" stroke-width="1.05"/>
<text x="926.00" y="222.00" font-size="15.00" font-weight="bold" fill="#2E8B8B" text-anchor="middle">EQ4</text>
<text x="926.00" y="237.25" font-size="9.00" fill="#8a9aa8" text-anchor="middle">9 m²</text>
<rect x="959.00" y="190.00" width="66.00" height="66.00" rx="3" fill="#eaf6ec" stroke="#2E8B8B" stroke-width="1.1"/>
<rect x="959.00" y="190.00" width="66.00" height="66.00" rx="2" fill="#ffffff" stroke="#2E8B8B" stroke-width="1.05"/>
<text x="992.00" y="222.00" font-size="15.00" font-weight="bold" fill="#2E8B8B" text-anchor="middle">EQ5</text>
<text x="992.00" y="237.25" font-size="9.00" fill="#8a9aa8" text-anchor="middle">9 m²</text>
<rect x="1025.00" y="190.00" width="66.00" height="66.00" rx="3" fill="#eaf6ec" stroke="#2E8B8B" stroke-width="1.1"/>
<rect x="1025.00" y="190.00" width="66.00" height="66.00" rx="2" fill="#ffffff" stroke="#2E8B8B" stroke-width="1.05"/>
<text x="1058.00" y="222.00" font-size="15.00" font-weight="bold" fill="#2E8B8B" text-anchor="middle">EQ6</text>
<text x="1058.00" y="237.25" font-size="9.00" fill="#8a9aa8" text-anchor="middle">9 m²</text>
<rect x="1091.00" y="190.00" width="66.00" height="66.00" rx="3" fill="#eaf6ec" stroke="#2E8B8B" stroke-width="1.1"/>
<rect x="1091.00" y="190.00" width="66.00" height="66.00" rx="2" fill="#ffffff" stroke="#2E8B8B" stroke-width="1.05"/>
<text x="1124.00" y="222.00" font-size="15.00" font-weight="bold" fill="#2E8B8B" text-anchor="middle">EQ7</text>
<text x="1124.00" y="237.25" font-size="9.00" fill="#8a9aa8" text-anchor="middle">9 m²</text>
<rect x="1157.00" y="190.00" width="66.00" height="66.00" rx="3" fill="#eaf6ec" stroke="#2E8B8B" stroke-width="1.1"/>
<rect x="1157.00" y="190.00" width="66.00" height="66.00" rx="2" fill="#ffffff" stroke="#2E8B8B" stroke-width="1.05"/>
<text x="1190.00" y="222.00" font-size="15.00" font-weight="bold" fill="#2E8B8B" text-anchor="middle">EQ8</text>
<text x="1190.00" y="237.25" font-size="9.00" fill="#8a9aa8" text-anchor="middle">9 m²</text>
<rect x="925.00" y="266.00" width="68" height="7" rx="3.5" fill="#2E8B8B"/>
<rect x="46.00" y="349.00" width="15" height="15" rx="3" fill="#eaf6ec" stroke="#2e7d32" stroke-width="1.4"/>
<text x="69.00" y="362.00" font-size="13" fill="#33454f">Bo'sh: 16 stend · 144 m²</text>
<rect x="277.44" y="349.00" width="15" height="15" rx="3" fill="#fff3d6" stroke="#f59e0b" stroke-width="1.4"/>
<text x="300.44" y="362.00" font-size="13" fill="#33454f">Bron: 0 stend · 0 m²</text>
<rect x="476.64" y="349.00" width="15" height="15" rx="3" fill="#c62828" stroke="#8e1b1b" stroke-width="1.4"/>
<text x="499.64" y="362.00" font-size="13" fill="#33454f">Sotilgan: 0 stend · 0 m²</text>
<text x="1300" y="430" font-size="12" fill="#33454f" text-anchor="end">Jami: 16 stend · 144 m² · bo'sh: 16 (144 m²)</text>
</svg>