<svg xmlns="http://www.w3.org/2000/svg" width="721" height="659" viewBox="0 0 721 659" font-family="DejaVu Sans, Helvetica, Arial, sans-serif">
<rect width="721" height="659" fill="#ffffff"/>
<text x="46" y="66" font-size="20" font-weight="bold" fill="#0f2233">Qandolat mahsulotlari — Кондитерские изделия</text>
<text x="46" y="87" font-size="13" fill="#5b6b7a">1 stend = 3×3 m = 9 m² · 1 blok = 8 stend = 72 m² · layout v1.0.0 · 14.09.2026</text>
<rect x="123.00" y="178.00" width="132.00" height="264.00" fill="none" stroke="#90a4b5" stroke-width="1.4" stroke-dasharray="7 5" rx="4"/>
<rect x="123.00" y="146.00" width="94.54" height="25" rx="5" fill="#3E9B5F"/>
<text x="170.27" y="163.05" font-size="13" font-weight="bold" fill="#ffffff" text-anchor="middle">K · 72 m²</text>
<rect x="123.00" y="178.00" width="66.00" height="66.00" rx="3" fill="#eaf6ec" stroke="#3E9B5F" stroke-width="1.1"/>
<text x="156.00" y="209.00" font-size="15.00" font-weight="bold" fill="#1b5e20" text-anchor="middle">1</text>
<text x="156.00" y="227.00" font-size="10" fill="#1b5e20" text-anchor="middle" opacity="0.85">01</text>
<rect x="189.00" y="178.00" width="66.00" height="66.00" rx="3" fill="#eaf6ec" stroke="#3E9B5F" stroke-width="1.1"/>
<text x="222.00" y="209.00" font-size="15.00" font-weight="bold" fill="#1b5e20" text-anchor="middle">2</text>
<text x="222.00" y="227.00" font-size="10" fill="#1b5e20" text-anchor="middle" opacity="0.85">02</text>
<rect x="123.00" y="244.00" width="66.00" height="66.00" rx="3" fill="#eaf6ec" stroke="#3E9B5F" stroke-width="1.1"/>
<text x="156.00" y="275.00" font-size="15.00" font-weight="bold" fill="#1b5e20" text-anchor="middle">3</text>
<text x="156.00" y="293.00" font-size="10" fill="#1b5e20" text-anchor="middle" opacity="0.85">03</text>
<rect x="189.00" y="244.00" width="66.00" height="66.00" rx="3" fill="#eaf6ec" stroke="#3E9B5F" stroke-width="1.1"/>
<text x="222.00" y="275.00" font-size="15.00" font-weight="bold" fill="#1b5e20" text-anchor="middle">4</text>
<text x="222.00" y="293.00" font-size="10" fill="#1b5e20" text-anchor="middle" opacity="0.85">04</text>
<rect x="155.00" y="452.00" width="68" height="7" rx="3.5" fill="#3E9B5F"/>
<path d="M123 310L189 310L255 310L255 376L255 442L189 442L123 442L123 376Z" fill="#c62828" stroke="#8e1b1b" stroke-width="2"/>
<text x="189.00" y="375.97" font-size="14.64" font-weight="bold" fill="#ffffff" text-anchor="middle">Qandolat Olam</text>
<text x="189.00" y="396.78" font-size="8.05" fill="#ffffff" text-anchor="middle" opacity="0.92">4 stend · 36 m²</text>
<rect x="46.00" y="535.00" width="15" height="15" rx="3" fill="#eaf6ec" stroke="#2e7d32" stroke-width="1.4"/>
<text x="69.00" y="548.00" font-size="13" fill="#33454f">Bo'sh: 4 stend · 36 m²</text>
<rect x="261.32" y="535.00" width="15" height="15" rx="3" fill="#fff3d6" stroke="#f59e0b" stroke-width="1.4"/>
<text x="284.32" y="548.00" font-size="13" fill="#33454f">Bron: 0 stend · 0 m²</text>
<rect x="46.00" y="560.00" width="15" height="15" rx="3" fill="#c62828" stroke="#8e1b1b" stroke-width="1.4"/>
<text x="69.00" y="573.00" font-size="13" fill="#33454f">Sotilgan: 4 stend · 36 m²</text>
<text x="674.68" y="641" font-size="12" fill="#33454f" text-anchor="end">Jami: 8 stend · 72 m² · bo'sh: 4 (36 m²)</text>
</svg>